<?xml version="1.0" encoding="UTF-8" standalone="no"?><svg xmlns="http://www.w3.org/2000/svg" xmlns:xlink="http://www.w3.org/1999/xlink" contentScriptType="application/ecmascript" contentStyleType="text/css" height="409px" preserveAspectRatio="none" style="width:1126px;height:409px;" version="1.1" viewBox="0 0 1126 409" width="1126px" zoomAndPan="magnify"><defs><filter height="300%" id="fmk41y7sv1wlf" width="300%" x="-1" y="-1"><feGaussianBlur result="blurOut" stdDeviation="2.0"/><feColorMatrix in="blurOut" result="blurOut2" type="matrix" values="0 0 0 0 0 0 0 0 0 0 0 0 0 0 0 0 0 0 .4 0"/><feOffset dx="4.0" dy="4.0" in="blurOut2" result="blurOut3"/><feBlend in="SourceGraphic" in2="blurOut3" mode="normal"/></filter></defs><g><text fill="#000000" font-family="sans-serif" font-size="18" lengthAdjust="spacingAndGlyphs" textLength="132" x="501" y="16.708">CXI PHY states</text><ellipse cx="164.5" cy="38.9531" fill="#000000" filter="url(#fmk41y7sv1wlf)" rx="10" ry="10" style="stroke: none; stroke-width: 1.0;"/><rect fill="#FEFECE" filter="url(#fmk41y7sv1wlf)" height="50.2656" rx="12.5" ry="12.5" style="stroke: #A80036; stroke-width: 1.5;" width="317" x="6" y="109.9531"/><line style="stroke: #A80036; stroke-width: 1.5;" x1="6" x2="323" y1="136.25" y2="136.25"/><text fill="#000000" font-family="sans-serif" font-size="14" lengthAdjust="spacingAndGlyphs" textLength="124" x="102.5" y="127.9482">CASS_PHY_DOWN</text><text fill="#000000" font-family="sans-serif" font-size="12" lengthAdjust="spacingAndGlyphs" textLength="297" x="11" y="152.3887">not running at all, before init and after destroy.</text><rect fill="#FEFECE" filter="url(#fmk41y7sv1wlf)" height="50.2656" rx="12.5" ry="12.5" style="stroke: #A80036; stroke-width: 1.5;" width="168" x="80.5" y="220.9531"/><line style="stroke: #A80036; stroke-width: 1.5;" x1="80.5" x2="248.5" y1="247.25" y2="247.25"/><text fill="#000000" font-family="sans-serif" font-size="14" lengthAdjust="spacingAndGlyphs" textLength="127" x="101" y="238.9482">CASS_PHY_READY</text><text fill="#000000" font-family="sans-serif" font-size="12" lengthAdjust="spacingAndGlyphs" textLength="148" x="85.5" y="263.3887">PHY has been initialized</text><rect fill="#FEFECE" filter="url(#fmk41y7sv1wlf)" height="50.2656" rx="12.5" ry="12.5" style="stroke: #A80036; stroke-width: 1.5;" width="220" x="54.5" y="347.9531"/><line style="stroke: #A80036; stroke-width: 1.5;" x1="54.5" x2="274.5" y1="374.25" y2="374.25"/><text fill="#000000" font-family="sans-serif" font-size="14" lengthAdjust="spacingAndGlyphs" textLength="98" x="115.5" y="365.9482">CASS_PHY_UP</text><text fill="#000000" font-family="sans-serif" font-size="12" lengthAdjust="spacingAndGlyphs" textLength="200" x="59.5" y="390.3887">PHY is trying to bring the link up</text><rect fill="#FEFECE" filter="url(#fmk41y7sv1wlf)" height="40" rx="12.5" ry="12.5" style="stroke: #A80036; stroke-width: 1.5;" width="153" x="461" y="352.9531"/><text fill="#000000" font-family="sans-serif" font-size="14" lengthAdjust="spacingAndGlyphs" textLength="143" x="466" y="377.7998">CASS_PHY_RUNNING</text><rect fill="#FEFECE" filter="url(#fmk41y7sv1wlf)" height="40" rx="12.5" ry="12.5" style="stroke: #A80036; stroke-width: 1.5;" width="139" x="740" y="352.9531"/><text fill="#000000" font-family="sans-serif" font-size="14" lengthAdjust="spacingAndGlyphs" textLength="129" x="745" y="377.7998">CASS_PHY_NOLINK</text><rect fill="#FEFECE" filter="url(#fmk41y7sv1wlf)" height="40" rx="12.5" ry="12.5" style="stroke: #A80036; stroke-width: 1.5;" width="144" x="971.5" y="352.9531"/><text fill="#000000" font-family="sans-serif" font-size="14" lengthAdjust="spacingAndGlyphs" textLength="134" x="976.5" y="377.7998">CASS_PHY_HALTED</text><!--MD5=[e1a8bc988b4df86913b8beafc233bcb2]
link *start to CASS_PHY_DOWN--><path d="M164.5,48.9631 C164.5,61.6531 164.5,85.3631 164.5,104.5231 " fill="none" id="*start-&gt;CASS_PHY_DOWN" style="stroke: #A80036; stroke-width: 1.0;"/><polygon fill="#A80036" points="164.5,109.7931,168.5,100.7931,164.5,104.7931,160.5,100.7931,164.5,109.7931" style="stroke: #A80036; stroke-width: 1.0;"/><!--MD5=[ecee67b01c4be768b63a9d9dd7e3357a]
link CASS_PHY_DOWN to CASS_PHY_READY--><path d="M164.5,160.1431 C164.5,176.5131 164.5,198.2331 164.5,215.5931 " fill="none" id="CASS_PHY_DOWN-&gt;CASS_PHY_READY" style="stroke: #A80036; stroke-width: 1.0;"/><polygon fill="#A80036" points="164.5,220.8331,168.5,211.8331,164.5,215.8331,160.5,211.8331,164.5,220.8331" style="stroke: #A80036; stroke-width: 1.0;"/><!--MD5=[c657e1bfda82626c14893a3c4fa614f9]
link CASS_PHY_READY to CASS_PHY_UP--><path d="M164.5,271.0531 C164.5,291.5431 164.5,321.0331 164.5,342.8331 " fill="none" id="CASS_PHY_READY-&gt;CASS_PHY_UP" style="stroke: #A80036; stroke-width: 1.0;"/><polygon fill="#A80036" points="164.5,347.9231,168.5,338.9231,164.5,342.9231,160.5,338.9231,164.5,347.9231" style="stroke: #A80036; stroke-width: 1.0;"/><!--MD5=[fa76fae1794b6eb3382eaa131910d55b]
link CASS_PHY_UP to CASS_PHY_RUNNING--><path d="M274.65,372.9531 C332.72,372.9531 402.73,372.9531 455.89,372.9531 " fill="none" id="CASS_PHY_UP-&gt;CASS_PHY_RUNNING" style="stroke: #A80036; stroke-width: 1.0;"/><polygon fill="#A80036" points="460.98,372.9531,451.98,368.9531,455.98,372.9531,451.98,376.9531,460.98,372.9531" style="stroke: #A80036; stroke-width: 1.0;"/><text fill="#000000" font-family="sans-serif" font-size="13" lengthAdjust="spacingAndGlyphs" textLength="150" x="292.75" y="366.02">physical link is available</text><!--MD5=[d6398f8148a09fea8a37ea7df9ce45a8]
link CASS_PHY_UP to CASS_PHY_NOLINK--><path d="M241.09,347.8831 C287.74,333.9431 348.89,318.0231 404.5,310.9531 C524.3,295.7331 663.32,327.9631 743.38,351.4031 " fill="none" id="CASS_PHY_UP-&gt;CASS_PHY_NOLINK" style="stroke: #A80036; stroke-width: 1.0;"/><polygon fill="#A80036" points="748.57,352.9431,741.0675,346.5625,743.7739,351.53,738.8064,354.2364,748.57,352.9431" style="stroke: #A80036; stroke-width: 1.0;"/><text fill="#000000" font-family="sans-serif" font-size="13" lengthAdjust="spacingAndGlyphs" textLength="72" x="405.5" y="314.02">link is down</text><!--MD5=[0c0cfd64686c2f3aa3d21b0ba9dc64f6]
link CASS_PHY_RUNNING to CASS_PHY_NOLINK--><path d="M614.24,375.3931 C640.77,375.9631 670.69,376.3231 698,375.9531 C709.86,375.7931 722.43,375.5431 734.68,375.2431 " fill="none" id="CASS_PHY_RUNNING-&gt;CASS_PHY_NOLINK" style="stroke: #A80036; stroke-width: 1.0;"/><polygon fill="#A80036" points="739.92,375.1131,730.8202,371.3458,734.9217,375.2417,731.0258,379.3432,739.92,375.1131" style="stroke: #A80036; stroke-width: 1.0;"/><!--MD5=[8e654452b7be61922516c9b503444931]
link CASS_PHY_NOLINK to CASS_PHY_RUNNING--><path d="M739.81,372.9531 C703.1,372.9531 657.86,372.9531 619.48,372.9531 " fill="none" id="CASS_PHY_NOLINK-&gt;CASS_PHY_RUNNING" style="stroke: #A80036; stroke-width: 1.0;"/><polygon fill="#A80036" points="614.35,372.9531,623.35,376.9531,619.35,372.9531,623.35,368.9531,614.35,372.9531" style="stroke: #A80036; stroke-width: 1.0;"/><text fill="#000000" font-family="sans-serif" font-size="13" lengthAdjust="spacingAndGlyphs" textLength="89" x="632.5" y="366.02">link is back up</text><!--MD5=[b276ff61d20655e967d90c36cf2e6afe]
link CASS_PHY_RUNNING to CASS_PHY_HALTED--><path d="M565.43,352.9331 C587.98,338.0831 621.16,319.0531 653.5,310.9531 C711.24,296.4931 870.08,330.1731 966.31,353.3431 " fill="none" id="CASS_PHY_RUNNING-&gt;CASS_PHY_HALTED" style="stroke: #A80036; stroke-width: 1.0;"/><polygon fill="#A80036" points="971.41,354.5731,963.5987,348.5745,966.5494,353.4009,961.723,356.3515,971.41,354.5731" style="stroke: #A80036; stroke-width: 1.0;"/><text fill="#000000" font-family="sans-serif" font-size="13" lengthAdjust="spacingAndGlyphs" textLength="56" x="654.5" y="314.02">link error</text><!--MD5=[6d4e1adcaeb95ac3b6cf13510ec272b5]
link CASS_PHY_NOLINK to CASS_PHY_HALTED--><path d="M879.07,372.9531 C906.47,372.9531 938.04,372.9531 966.15,372.9531 " fill="none" id="CASS_PHY_NOLINK-&gt;CASS_PHY_HALTED" style="stroke: #A80036; stroke-width: 1.0;"/><polygon fill="#A80036" points="971.35,372.9531,962.35,368.9531,966.35,372.9531,962.35,376.9531,971.35,372.9531" style="stroke: #A80036; stroke-width: 1.0;"/><text fill="#000000" font-family="sans-serif" font-size="13" lengthAdjust="spacingAndGlyphs" textLength="56" x="897.25" y="366.02">link error</text><!--MD5=[a5fc7ad5f3cd66d8dd03301449e213c6]
link CASS_PHY_HALTED to CASS_PHY_UP--><path d="M1016.5,352.9431 C994.69,338.0931 962.53,319.0631 931,310.9531 C873.75,296.2231 857.04,308.0731 798,310.9531 C616.46,319.8131 406.71,342.8831 279.92,358.2431 " fill="none" id="CASS_PHY_HALTED-&gt;CASS_PHY_UP" style="stroke: #A80036; stroke-width: 1.0;"/><polygon fill="#A80036" points="274.7,358.8731,284.1144,361.7659,279.664,358.274,283.1559,353.8236,274.7,358.8731" style="stroke: #A80036; stroke-width: 1.0;"/><text fill="#000000" font-family="sans-serif" font-size="13" lengthAdjust="spacingAndGlyphs" textLength="131" x="799" y="314.02">try to restart the link</text><!--MD5=[5975de885062a58f48fa9ed7375553e2]
@startuml

title CXI PHY states
hide empty description

[*] - -> CASS_PHY_DOWN

CASS_PHY_DOWN : not running at all, before init and after destroy.
CASS_PHY_DOWN - -> CASS_PHY_READY

CASS_PHY_READY : PHY has been initialized
CASS_PHY_READY - -> CASS_PHY_UP

CASS_PHY_UP : PHY is trying to bring the link up
CASS_PHY_UP -> CASS_PHY_RUNNING : physical link is available
CASS_PHY_UP -> CASS_PHY_NOLINK : link is down

CASS_PHY_RUNNING -> CASS_PHY_NOLINK
CASS_PHY_RUNNING -> CASS_PHY_HALTED : link error

CASS_PHY_NOLINK -> CASS_PHY_RUNNING : link is back up
CASS_PHY_NOLINK -> CASS_PHY_HALTED : link error

CASS_PHY_HALTED -> CASS_PHY_UP : try to restart the link

@enduml

PlantUML version 1.2020.02(Sun Mar 01 04:22:07 CST 2020)
(GPL source distribution)
Java Runtime: OpenJDK Runtime Environment
JVM: OpenJDK 64-Bit Server VM
Java Version: 11.0.16+8-post-Ubuntu-0ubuntu122.04
Operating System: Linux
Default Encoding: UTF-8
Language: en
Country: US
--></g></svg>