<?xml version="1.0" encoding="UTF-8" standalone="no"?><svg xmlns="http://www.w3.org/2000/svg" xmlns:xlink="http://www.w3.org/1999/xlink" contentScriptType="application/ecmascript" contentStyleType="text/css" height="616px" preserveAspectRatio="none" style="width:554px;height:616px;" version="1.1" viewBox="0 0 554 616" width="554px" zoomAndPan="magnify"><defs><filter height="300%" id="f6q8ajni83ug9" width="300%" x="-1" y="-1"><feGaussianBlur result="blurOut" stdDeviation="2.0"/><feColorMatrix in="blurOut" result="blurOut2" type="matrix" values="0 0 0 0 0 0 0 0 0 0 0 0 0 0 0 0 0 0 .4 0"/><feOffset dx="4.0" dy="4.0" in="blurOut2" result="blurOut3"/><feBlend in="SourceGraphic" in2="blurOut3" mode="normal"/></filter></defs><g><text fill="#000000" font-family="sans-serif" font-size="18" lengthAdjust="spacingAndGlyphs" textLength="540" x="2" y="16.708">TCT_TIMEOUT PCT event state machine in the retry handler</text><ellipse cx="86.5" cy="38.9531" fill="#000000" filter="url(#f6q8ajni83ug9)" rx="10" ry="10" style="stroke: none; stroke-width: 1.0;"/><rect fill="#FEFECE" filter="url(#f6q8ajni83ug9)" height="50" rx="12.5" ry="12.5" style="stroke: #A80036; stroke-width: 1.5;" width="98" x="37.5" y="125.9531"/><line style="stroke: #A80036; stroke-width: 1.5;" x1="37.5" x2="135.5" y1="152.25" y2="152.25"/><text fill="#000000" font-family="sans-serif" font-size="14" lengthAdjust="spacingAndGlyphs" textLength="78" x="47.5" y="143.9482">tct_timeout</text><ellipse cx="86.5" cy="595.9531" fill="none" filter="url(#f6q8ajni83ug9)" rx="10" ry="10" style="stroke: #000000; stroke-width: 1.0;"/><ellipse cx="87" cy="596.4531" fill="#000000" rx="6" ry="6" style="stroke: none; stroke-width: 1.0;"/><rect fill="#FEFECE" filter="url(#f6q8ajni83ug9)" height="50" rx="12.5" ry="12.5" style="stroke: #A80036; stroke-width: 1.5;" width="162" x="119.5" y="236.9531"/><line style="stroke: #A80036; stroke-width: 1.5;" x1="119.5" x2="281.5" y1="263.25" y2="263.25"/><text fill="#000000" font-family="sans-serif" font-size="14" lengthAdjust="spacingAndGlyphs" textLength="142" x="129.5" y="254.9482">add_tct_check_timer</text><rect fill="#FEFECE" filter="url(#f6q8ajni83ug9)" height="50" rx="12.5" ry="12.5" style="stroke: #A80036; stroke-width: 1.5;" width="143" x="293" y="363.9531"/><line style="stroke: #A80036; stroke-width: 1.5;" x1="293" x2="436" y1="390.25" y2="390.25"/><text fill="#000000" font-family="sans-serif" font-size="14" lengthAdjust="spacingAndGlyphs" textLength="123" x="303" y="381.9482">check_tct_closing</text><rect fill="#FEFECE" filter="url(#f6q8ajni83ug9)" height="50" rx="12.5" ry="12.5" style="stroke: #A80036; stroke-width: 1.5;" width="72" x="223.5" y="474.9531"/><line style="stroke: #A80036; stroke-width: 1.5;" x1="223.5" x2="295.5" y1="501.25" y2="501.25"/><text fill="#000000" font-family="sans-serif" font-size="14" lengthAdjust="spacingAndGlyphs" textLength="52" x="233.5" y="492.9482">free_tct</text><!--link *start to tct_timeout--><path d="M86.5,49.289 C86.5,65.299 86.5,96.7165 86.5,120.4102 " fill="none" id="*start-tct_timeout" style="stroke: #A80036; stroke-width: 1.0;"/><polygon fill="#A80036" points="86.5,125.6435,90.5,116.6435,86.5,120.6435,82.5,116.6435,86.5,125.6435" style="stroke: #A80036; stroke-width: 1.0;"/><text fill="#000000" font-family="sans-serif" font-size="13" lengthAdjust="spacingAndGlyphs" textLength="173" x="87.5" y="92.02">C_PCT_TCT_TIMEOUT event</text><!--link tct_timeout to *end--><path d="M79.2795,176.2903 C73.5508,198.6385 66.5,232.1898 66.5,261.9531 C66.5,261.9531 66.5,261.9531 66.5,499.9531 C66.5,529.3643 75.6081,562.7987 81.5313,581.4324 " fill="none" id="tct_timeout-*end" style="stroke: #A80036; stroke-width: 1.0;"/><polygon fill="#A80036" points="83.1073,586.2799,84.1286,576.4842,81.5613,581.5249,76.5206,578.9577,83.1073,586.2799" style="stroke: #A80036; stroke-width: 1.0;"/><text fill="#000000" font-family="sans-serif" font-size="13" lengthAdjust="spacingAndGlyphs" textLength="189" x="67.5" y="393.52">TCT CAM is not valid anymore</text><!--link tct_timeout to add_tct_check_timer--><path d="M112.3684,176.1407 C129.7134,193.0293 152.6062,215.3197 170.7125,232.9495 " fill="none" id="tct_timeout-add_tct_check_timer" style="stroke: #A80036; stroke-width: 1.0;"/><polygon fill="#A80036" points="174.734,236.8652,171.0762,227.7208,171.1516,233.3771,165.4953,233.4526,174.734,236.8652" style="stroke: #A80036; stroke-width: 1.0;"/><!--link add_tct_check_timer to check_tct_closing--><path d="M191.1892,287.1878 C187.3903,302.1289 185.855,320.6713 195.5,333.9531 C201.4791,342.1868 246.171,356.5391 288.0907,368.5179 " fill="none" id="add_tct_check_timer-check_tct_closing" style="stroke: #A80036; stroke-width: 1.0;"/><polygon fill="#A80036" points="292.9227,369.8918,285.36,363.5827,288.1134,368.5242,283.1718,371.2776,292.9227,369.8918" style="stroke: #A80036; stroke-width: 1.0;"/><text fill="#000000" font-family="sans-serif" font-size="13" lengthAdjust="spacingAndGlyphs" textLength="126" x="196.5" y="330.02">check timer expired</text><!--link check_tct_closing to add_tct_check_timer--><path d="M356.534,363.9078 C350.5997,348.6615 341.146,329.7268 327.5,316.9531 C315.5774,305.7926 301.0333,296.6813 286.1001,289.3179 " fill="none" id="check_tct_closing-add_tct_check_timer" style="stroke: #A80036; stroke-width: 1.0;"/><polygon fill="#A80036" points="281.4557,287.0885,287.8384,294.5893,285.9633,289.2522,291.3003,287.3772,281.4557,287.0885" style="stroke: #A80036; stroke-width: 1.0;"/><text fill="#000000" font-family="sans-serif" font-size="13" lengthAdjust="spacingAndGlyphs" textLength="152" x="341.5" y="330.02">TRS entries still pending</text><!--link check_tct_closing to free_tct--><path d="M340.6739,414.1407 C324.6982,431.0293 303.6127,453.3197 286.9359,470.9495 " fill="none" id="check_tct_closing-free_tct" style="stroke: #A80036; stroke-width: 1.0;"/><polygon fill="#A80036" points="283.2318,474.8652,292.3224,471.0757,286.6678,471.2328,286.5106,465.5782,283.2318,474.8652" style="stroke: #A80036; stroke-width: 1.0;"/><!--link free_tct to *end--><path d="M223.2335,520.0778 C184.8043,541.4027 126.1319,573.9609 99.9394,588.4954 " fill="none" id="free_tct-*end" style="stroke: #A80036; stroke-width: 1.0;"/><polygon fill="#A80036" points="95.4388,590.9928,105.2492,590.1236,99.8108,588.5668,101.3676,583.1284,95.4388,590.9928" style="stroke: #A80036; stroke-width: 1.0;"/><!--
@startuml

title TCT_TIMEOUT PCT event state machine in the retry handler

[*] - -> tct_timeout : C_PCT_TCT_TIMEOUT event

tct_timeout - -> [*] : TCT CAM is not valid anymore
tct_timeout - -> add_tct_check_timer

add_tct_check_timer - -> check_tct_closing : check timer expired

check_tct_closing - -> add_tct_check_timer : TRS entries still pending
check_tct_closing - -> free_tct

free_tct - -> [*]

@enduml

PlantUML version 1.2018.13(Mon Nov 26 11:11:51 CST 2018)
(GPL source distribution)
Java Runtime: OpenJDK Runtime Environment
JVM: OpenJDK 64-Bit Server VM
Java Version: 11.0.5+10-post-Ubuntu-0ubuntu1.1
Operating System: Linux
OS Version: 5.3.0-24-generic
Default Encoding: UTF-8
Language: en
Country: US
--></g></svg>